HIERARCHY
ROOT Hips
{
	OFFSET 0.000000 0.000000 0.000000
	CHANNELS 6 Xposition Yposition Zposition Xrotation Yrotation Zrotation
	JOINT LeftUpLeg_virtual
	{
		OFFSET 0.000000 0.000000 0.000000
		CHANNELS 3 Xrotation Yrotation Zrotation
		JOINT LeftUpLeg
		{
			OFFSET 13.026900 -6.336304 -1.092800
			CHANNELS 3 Xrotation Yrotation Zrotation
			JOINT LeftLeg
			{
				OFFSET 0.524474 -46.096886 9.782700
				CHANNELS 3 Xrotation Yrotation Zrotation
				JOINT LeftFoot
				{
					OFFSET -0.524474 -53.427422 -12.948200
					CHANNELS 3 Xrotation Yrotation Zrotation
					JOINT LeftToeBase
					{
						OFFSET 0.192200 -14.009700 16.364100
						CHANNELS 3 Xrotation Yrotation Zrotation
						JOINT LeftToe_End
						{
							OFFSET -1.784700 -0.561700 9.474800
							CHANNELS 3 Xrotation Yrotation Zrotation
							End Site
							{
								OFFSET 0 0 0
							}
						}
					}
				}
			}
		}
	}
	JOINT RightUpLeg_virtual
	{
		OFFSET 0.000000 0.000000 0.000000
		CHANNELS 3 Xrotation Yrotation Zrotation
		JOINT RightUpLeg
		{
			OFFSET -12.883000 -6.336304 -1.092800
			CHANNELS 3 Xrotation Yrotation Zrotation
			JOINT RightLeg
			{
				OFFSET -0.524587 -46.096825 9.782800
				CHANNELS 3 Xrotation Yrotation Zrotation
				JOINT RightFoot
				{
					OFFSET 0.524587 -53.427383 -12.948300
					CHANNELS 3 Xrotation Yrotation Zrotation
					JOINT RightToeBase
					{
						OFFSET -0.192200 -14.009700 16.364100
						CHANNELS 3 Xrotation Yrotation Zrotation
						JOINT RightToe_End
						{
							OFFSET 1.784700 -0.561700 9.474800
							CHANNELS 3 Xrotation Yrotation Zrotation
							End Site
							{
								OFFSET 0 0 0
							}
						}
					}
				}
			}
		}
	}
	JOINT Spine_virtual
	{
		OFFSET 0.000000 0.000000 0.000000
		CHANNELS 3 Xrotation Yrotation Zrotation
		JOINT Spine
		{
			OFFSET 0.072000 7.257294 -0.789700
			CHANNELS 3 Xrotation Yrotation Zrotation
			JOINT Spine1
			{
				OFFSET 0.000000 12.508769 -0.658067
				CHANNELS 3 Xrotation Yrotation Zrotation
				JOINT Spine1_split
				{
					OFFSET 0.000000 12.508769 -0.658067
					CHANNELS 3 Xrotation Yrotation Zrotation
					JOINT Spine2
					{
						OFFSET 0.000000 12.508769 -0.658067
						CHANNELS 3 Xrotation Yrotation Zrotation
						JOINT Neck_virtual
						{
							OFFSET 0.000000 0.000000 0.000000
							CHANNELS 3 Xrotation Yrotation Zrotation
							JOINT Neck
							{
								OFFSET 0.000000 14.033295 7.520400
								CHANNELS 3 Xrotation Yrotation Zrotation
								JOINT Head
								{
									OFFSET 0.000000 8.198502 5.703100
									CHANNELS 3 Xrotation Yrotation Zrotation
									JOINT HeadTop_End
									{
										OFFSET 0.000000 17.760803 13.332701
										CHANNELS 3 Xrotation Yrotation Zrotation
										End Site
										{
											OFFSET 0 0 0
										}
									}
								}
							}
						}
						JOINT LeftShoulder_virtual
						{
							OFFSET 0.000000 0.000000 0.000000
							CHANNELS 3 Xrotation Yrotation Zrotation
							JOINT LeftShoulder
							{
								OFFSET 6.292450 5.785301 -0.669000
								CHANNELS 3 Xrotation Yrotation Zrotation
								JOINT LeftShoulder_split
								{
									OFFSET 6.292450 5.785301 -0.669000
									CHANNELS 3 Xrotation Yrotation Zrotation
									JOINT LeftArm
									{
										OFFSET 13.907140 -6.093903 1.965100
										CHANNELS 3 Xrotation Yrotation Zrotation
										JOINT LeftForeArm
										{
											OFFSET 34.140198 0.000000 0.000000
											CHANNELS 3 Xrotation Yrotation Zrotation
											JOINT LeftHand
											{
												OFFSET 40.960209 0.000000 0.000000
												CHANNELS 3 Xrotation Yrotation Zrotation
												End Site
												{
													OFFSET 0 0 0
												}
											}
										}
									}
								}
							}
						}
						JOINT RightShoulder_virtual
						{
							OFFSET 0.000000 0.000000 0.000000
							CHANNELS 3 Xrotation Yrotation Zrotation
							JOINT RightShoulder
							{
								OFFSET -6.292450 5.785301 -0.669000
								CHANNELS 3 Xrotation Yrotation Zrotation
								JOINT RightShoulder_split
								{
									OFFSET -6.292450 5.785301 -0.669000
									CHANNELS 3 Xrotation Yrotation Zrotation
									JOINT RightArm
									{
										OFFSET -13.907140 -6.093903 1.965100
										CHANNELS 3 Xrotation Yrotation Zrotation
										JOINT RightForeArm
										{
											OFFSET -34.140198 0.000000 0.000000
											CHANNELS 3 Xrotation Yrotation Zrotation
											JOINT RightHand
											{
												OFFSET -40.960209 0.000000 0.000000
												CHANNELS 3 Xrotation Yrotation Zrotation
												End Site
												{
													OFFSET 0 0 0
												}
											}
										}
									}
								}
							}
						}
					}
				}
			}
		}
	}
}
MOTION
Frames: 6
Frame Time: 0.03333333
7.423203 115.283905 0.502300 0.000000 0.000000 0.000000 -1.396585 -16.435421 -3.014639 -12.243166 23.321117 10.250828 17.559353 9.523794 3.570064 -6.318006 7.483157 -8.724749 1.649457 0.105933 -0.997020 0.000000 0.000000 0.000000 -0.982250 -14.720383 -3.057440 -9.762340 -18.362159 -8.128721 10.431478 9.304566 -1.759506 -0.673010 7.657704 7.574055 -2.227551 -0.034479 0.732797 0.000000 0.000000 0.000000 -1.989222 -15.403270 -3.771128 0.548479 -0.419435 -0.962688 0.102874 -0.951062 -0.562180 1.066393 -0.938386 0.137476 0.000000 0.000000 0.000000 0.985271 -0.443172 -0.625686 1.227045 1.208769 2.498137 -0.915929 14.542369 -1.148190 0.000000 0.000000 0.000000 0.583223 -0.258236 -0.670964 -0.536973 8.951506 -0.135019 -5.615580 0.117436 -1.086328 40.447246 -59.850981 -27.964476 0.064513 -28.429751 1.446201 0.000000 0.000000 0.000000 1.035708 -0.527352 -1.048154 5.222604 4.629574 -14.348238 1.058111 4.324199 -0.263329 -39.944968 -17.802174 40.641678 179.750389 70.801686 179.966564 0.000000 0.000000 0.000000 
7.133089 115.340569 0.494221 0.000000 0.000000 0.000000 -1.375755 -16.058366 -3.023643 -12.258946 23.149466 10.497334 17.488194 9.531624 3.598699 -6.178068 7.241559 -8.966971 1.622837 0.111706 -0.987292 0.000000 0.000000 0.000000 -0.946787 -14.343705 -3.069676 -9.665627 -18.169616 -8.025628 10.628228 9.241525 -1.530846 -0.934722 7.084982 7.211589 -2.073868 -0.044274 0.731027 0.000000 0.000000 0.000000 -1.965053 -15.060045 -3.773828 0.506530 -0.395164 -0.814842 0.105238 -0.948735 -0.478828 1.053893 -0.838067 0.123487 0.000000 0.000000 0.000000 0.937524 -0.457604 -0.533728 1.155660 1.196560 2.400491 -0.988973 14.391695 -1.123479 0.000000 0.000000 0.000000 0.533777 -0.245325 -0.599464 -0.508138 8.929429 -0.290609 -5.614702 -0.035989 -1.039961 40.580572 -60.105330 -27.842320 0.018263 -28.423417 1.422947 0.000000 0.000000 0.000000 1.016119 -0.513681 -0.983555 5.187643 4.725611 -13.522052 1.040669 4.306262 -0.327756 -37.387947 -15.205493 40.888948 179.878428 71.527571 179.879712 0.000000 0.000000 0.000000 
6.821910 115.407410 0.488129 0.000000 0.000000 0.000000 -1.345984 -15.646519 -3.028982 -12.265430 22.906631 10.752087 17.408750 9.535996 3.614639 -6.015708 7.016163 -9.214475 1.617344 0.119869 -0.980152 0.000000 0.000000 0.000000 -0.909956 -13.930618 -3.082511 -9.559840 -18.010802 -7.905693 10.816063 9.190971 -1.311409 -1.157124 6.524431 6.860983 -1.966002 -0.052165 0.726577 0.000000 0.000000 0.000000 -1.924145 -14.701258 -3.777239 0.455402 -0.379973 -0.670274 0.112736 -0.957248 -0.402511 1.045946 -0.744073 0.095016 0.000000 0.000000 0.000000 0.896818 -0.476746 -0.451329 1.075159 1.187893 2.350850 -1.042766 14.241121 -1.079522 0.000000 0.000000 0.000000 0.495494 -0.242601 -0.534167 -0.479064 8.898301 -0.401427 -5.586667 -0.189738 -1.014137 40.615553 -60.383052 -27.782179 -0.036447 -28.352832 1.388278 0.000000 0.000000 0.000000 0.999519 -0.509256 -0.923396 5.138970 4.816328 -12.567881 1.028829 4.286263 -0.401687 -34.761411 -12.481617 41.035596 -179.966728 72.382479 179.770087 0.000000 0.000000 0.000000 
6.495099 115.475677 0.488010 0.000000 0.000000 0.000000 -1.302014 -15.198168 -3.016838 -12.262110 22.596952 10.988559 17.299339 9.530823 3.626417 -5.832158 6.807106 -9.475229 1.620174 0.129795 -0.974696 0.000000 0.000000 0.000000 -0.862059 -13.489990 -3.082604 -9.462688 -17.889771 -7.779626 10.995266 9.169189 -1.117550 -1.333673 6.002681 6.549271 -1.925406 -0.059603 0.728475 0.000000 0.000000 0.000000 -1.865274 -14.320908 -3.769117 0.395403 -0.375416 -0.535216 0.122720 -0.973243 -0.338581 1.039042 -0.637338 0.058518 0.000000 0.000000 0.000000 0.859250 -0.498449 -0.383902 0.976116 1.178302 2.352967 -1.088693 14.078447 -1.005186 0.000000 0.000000 0.000000 0.462313 -0.245381 -0.481925 -0.454063 8.868591 -0.451243 -5.526613 -0.338062 -0.999110 40.557933 -60.686210 -27.798253 -0.097672 -28.208116 1.343756 0.000000 0.000000 0.000000 0.982019 -0.512291 -0.873792 5.080018 4.900925 -11.492190 1.004759 4.242291 -0.465530 -32.034154 -9.609164 41.033649 -179.777614 73.373615 179.632869 0.000000 0.000000 0.000000 
6.163270 115.532532 0.499268 0.000000 0.000000 0.000000 -1.240496 -14.716426 -2.978701 -12.252401 22.241990 11.195320 17.151916 9.514140 3.637726 -5.628821 6.610219 -9.748958 1.620319 0.139307 -0.969377 0.000000 0.000000 0.000000 -0.791423 -13.031552 -3.059784 -9.384041 -17.813574 -7.653673 11.174883 9.174452 -0.963036 -1.500433 5.527225 6.239034 -1.889390 -0.067011 0.745171 0.000000 0.000000 0.000000 -1.791123 -13.923677 -3.740326 0.330526 -0.384016 -0.414434 0.132208 -0.992476 -0.289773 1.029520 -0.545203 0.022708 0.000000 0.000000 0.000000 0.819654 -0.519935 -0.333641 0.851546 1.161704 2.396250 -1.128503 13.887505 -0.893544 0.000000 0.000000 0.000000 0.428368 -0.250277 -0.444454 -0.438524 8.847597 -0.433419 -5.443213 -0.474615 -0.985167 40.429027 -61.005310 -27.888453 -0.161654 -28.000620 1.296469 0.000000 0.000000 0.000000 0.958425 -0.518652 -0.836391 5.013474 4.974345 -10.320845 0.991144 4.174186 -0.517076 -29.198635 -6.597489 40.870838 -179.564840 74.500056 179.479367 0.000000 0.000000 0.000000 
5.831224 115.560722 0.519817 0.000000 0.000000 0.000000 -1.157454 -14.227785 -2.910661 -12.241336 21.868860 11.372050 16.973782 9.486783 3.644787 -5.417570 6.425208 -10.026821 1.612504 0.147214 -0.963129 0.000000 0.000000 0.000000 -0.693672 -12.573697 -3.010515 -9.341490 -17.792832 -7.528206 11.370730 9.197536 -0.856054 -1.707238 5.099898 5.897819 -1.802167 -0.073525 0.779766 0.000000 0.000000 0.000000 -1.699517 -13.527386 -3.685042 0.263695 -0.403916 -0.308481 0.136773 -1.013231 -0.252992 1.011536 -0.450669 -0.014640 0.000000 0.000000 0.000000 0.770779 -0.539374 -0.297394 0.698567 1.137813 2.462303 -1.166321 13.666594 -0.748556 0.000000 0.000000 0.000000 0.385685 -0.254129 -0.418895 -0.432482 8.843212 -0.360514 -5.347133 -0.606154 -0.965217 40.261015 -61.339176 -28.022332 -0.219047 -27.745659 1.253248 0.000000 0.000000 0.000000 0.924854 -0.526229 -0.808849 4.944134 5.043277 -9.087980 0.984846 4.078971 -0.559580 -26.258061 -3.464756 40.563213 -179.344607 75.790525 179.326726 0.000000 0.000000 0.000000 
